<?xml version="1.0" standalone="no"?>
<!DOCTYPE svg PUBLIC "-//W3C//DTD SVG 20010904//EN"
 "http://www.w3.org/TR/2001/REC-SVG-20010904/DTD/svg10.dtd">
<svg version="1.0" xmlns="http://www.w3.org/2000/svg"
 width="330.000000pt" height="330.000000pt" viewBox="0 0 330.000000 330.000000"
 preserveAspectRatio="xMidYMid meet">
<metadata>
Created by potrace 1.15, written by Peter Selinger 2001-2017
</metadata>
<g transform="translate(0.000000,330.000000) scale(0.100000,-0.100000)"
fill="#000000" stroke="none">
<path d="M1505 3288 c-22 -3 -65 -6 -96 -6 -31 0 -72 -7 -90 -15 -43 -18 -154
-48 -195 -52 -16 -2 -46 -11 -66 -22 -200 -103 -247 -128 -270 -145 -16 -10
-32 -17 -37 -13 -5 3 -13 0 -17 -6 -5 -8 -3 -9 6 -4 9 5 11 4 6 -4 -4 -6 -12
-9 -17 -5 -15 9 -144 -94 -248 -197 -103 -104 -206 -233 -197 -248 4 -5 1 -13
-5 -17 -8 -5 -9 -3 -4 6 5 9 4 11 -4 6 -6 -4 -9 -12 -6 -17 4 -5 -3 -21 -13
-37 -17 -23 -42 -70 -145 -270 -11 -20 -20 -50 -22 -66 -3 -39 -33 -151 -51
-191 -21 -50 -40 -477 -22 -501 4 -6 9 -40 10 -75 0 -35 7 -76 14 -90 7 -14
16 -50 20 -80 4 -30 16 -71 27 -92 16 -32 21 -50 26 -109 1 -4 7 -13 15 -20
20 -21 46 -74 46 -97 0 -11 9 -28 20 -38 10 -11 30 -44 44 -75 13 -30 31 -58
39 -61 7 -3 26 -30 42 -61 15 -30 31 -54 35 -53 9 3 51 -50 69 -85 8 -15 17
-25 21 -23 4 2 22 -11 40 -30 19 -19 31 -35 27 -35 -4 0 1 -8 11 -18 9 -10 22
-17 28 -15 7 3 31 -18 54 -46 23 -27 48 -47 54 -45 7 3 32 -14 55 -36 23 -23
52 -43 63 -45 25 -5 69 -33 84 -53 6 -8 20 -16 32 -17 28 -2 102 -36 97 -45
-2 -4 25 -15 62 -24 37 -9 74 -23 84 -32 9 -8 27 -15 40 -16 38 0 119 -21 119
-30 0 -4 20 -8 44 -8 24 0 68 -5 97 -11 95 -19 485 -12 512 9 14 10 115 33
168 37 33 3 117 39 292 127 33 16 56 24 51 17 -9 -15 -6 -13 103 58 113 74
402 363 476 476 71 109 73 112 58 103 -7 -5 1 18 17 51 88 175 124 259 127
292 4 53 27 154 37 168 21 27 28 417 9 512 -6 29 -11 73 -11 97 0 24 -4 44 -8
44 -9 0 -30 81 -30 119 -1 13 -8 31 -16 40 -9 10 -23 47 -32 84 -9 37 -20 64
-24 62 -9 -5 -43 69 -45 97 -1 12 -9 26 -17 32 -20 15 -48 59 -53 84 -2 11
-22 40 -45 63 -22 23 -39 48 -36 55 2 6 -18 31 -45 54 -28 23 -49 47 -46 54 2
6 -5 19 -15 29 -10 9 -18 14 -18 10 0 -4 -16 8 -35 27 -19 18 -32 36 -30 40 2
4 -8 13 -23 21 -35 18 -88 60 -85 69 1 4 -23 20 -53 35 -31 16 -58 35 -61 42
-3 8 -31 26 -61 39 -31 14 -64 34 -75 44 -10 11 -27 20 -38 20 -23 0 -76 26
-97 46 -7 8 -16 14 -20 15 -59 5 -77 10 -109 26 -21 11 -62 23 -92 27 -30 4
-66 13 -80 20 -14 7 -54 14 -89 14 -35 1 -69 5 -75 9 -15 10 -260 11 -312 1z
m290 -119 c17 -5 63 -11 104 -13 42 -3 77 -10 81 -17 4 -6 25 -13 46 -14 80
-4 79 -3 81 -119 l1 -104 -33 11 c-19 5 -32 14 -29 19 5 7 -22 12 -56 10 -8 0
-40 6 -70 14 -53 15 -171 28 -255 27 -131 0 -241 -6 -250 -12 -13 -10 -140
-42 -182 -46 -37 -4 -43 9 -43 97 0 49 4 61 26 81 27 26 154 60 190 51 10 -2
42 2 69 10 56 15 273 19 320 5z m-667 -182 l3 -103 -62 -29 c-34 -17 -98 -54
-142 -82 -44 -29 -83 -50 -87 -48 -4 3 -14 -3 -21 -13 -13 -16 -12 -16 6 -2
17 12 18 12 7 0 -7 -8 -19 -15 -27 -15 -21 0 -206 -187 -201 -201 3 -7 -5 -20
-17 -31 l-22 -18 20 25 20 25 -22 -19 c-13 -10 -20 -22 -17 -27 3 -5 -13 -35
-34 -66 -83 -123 -171 -322 -132 -298 5 3 10 0 10 -8 0 -22 40 -107 50 -108 6
-1 13 -2 18 -3 4 -1 25 -6 48 -10 l41 -7 1 -200 0 -200 -71 3 c-62 2 -77 -1
-105 -20 -41 -29 -65 -75 -58 -110 3 -15 8 -58 11 -97 3 -38 10 -72 15 -75 9
-6 40 -85 39 -98 -3 -17 2 -32 15 -44 19 -19 46 -74 46 -93 0 -8 8 -23 18 -33
28 -28 63 -80 60 -90 -2 -5 18 -30 44 -57 26 -26 45 -51 43 -56 -3 -4 7 -17
22 -29 l27 -21 -64 -64 c-36 -36 -67 -65 -70 -65 -3 0 -11 14 -18 30 -8 17
-17 28 -22 25 -11 -7 -48 40 -66 84 -8 19 -17 31 -21 28 -8 -9 -53 57 -53 78
0 9 -11 26 -23 38 -30 27 -48 62 -52 95 -1 14 -10 31 -18 37 -19 14 -38 57
-43 99 -2 16 -10 37 -18 45 -15 18 -27 59 -32 115 -2 22 -9 43 -15 46 -6 4
-12 40 -15 81 -2 41 -8 88 -13 104 -14 48 -11 254 5 319 9 32 13 65 10 73 -6
16 22 152 34 168 15 18 50 116 40 110 -13 -8 -6 10 47 125 24 52 54 106 67
120 12 14 43 54 68 90 25 36 67 89 93 118 26 29 45 56 41 59 -9 9 65 84 76 77
5 -3 32 16 61 42 28 26 87 71 129 101 43 30 80 59 84 64 7 11 106 63 184 95
30 13 55 23 55 24 0 0 1 -46 3 -103z m1158 45 c6 -8 23 -16 38 -17 29 -4 65
-24 97 -56 10 -10 26 -19 35 -19 20 0 86 -45 78 -53 -4 -3 6 -12 22 -19 40
-17 95 -59 89 -67 -4 -7 37 -48 43 -43 8 8 55 -36 68 -64 9 -19 20 -32 24 -29
10 6 45 -34 65 -77 9 -21 21 -36 25 -33 11 7 50 -48 55 -77 3 -13 13 -30 23
-38 26 -22 52 -66 52 -89 0 -11 9 -28 19 -38 22 -21 41 -64 47 -107 2 -16 8
-32 13 -36 12 -7 40 -81 39 -101 -2 -36 3 -60 11 -54 11 6 27 -77 23 -118 -2
-16 2 -34 8 -42 14 -17 25 -321 11 -330 -6 -3 -10 -34 -10 -68 1 -62 -15 -152
-30 -172 -13 -17 -41 -106 -31 -100 20 13 -61 -188 -89 -220 -30 -35 -101
-156 -96 -165 3 -4 -3 -14 -13 -21 -16 -13 -16 -13 -2 6 14 18 14 19 -2 7 -9
-8 -15 -19 -12 -25 5 -14 -117 -162 -134 -162 -7 0 -11 3 -9 6 3 10 -35 49
-43 44 -4 -2 -21 11 -39 29 l-32 33 45 56 c75 92 118 156 112 166 -4 5 -1 13
5 17 8 5 9 3 4 -6 -5 -9 -4 -11 4 -6 6 4 9 11 6 17 -3 5 8 35 25 66 59 113
118 248 118 273 0 14 3 50 7 82 10 79 3 99 -50 132 -25 16 -45 33 -45 38 0 5
-29 6 -68 3 l-68 -7 0 201 -1 201 31 2 c17 0 38 1 46 0 20 -1 68 35 82 61 10
20 11 56 4 156 -2 19 -10 39 -18 45 -20 15 -48 70 -48 95 0 11 -8 26 -18 33
-23 17 -63 74 -60 86 2 5 -19 30 -46 56 -26 26 -45 50 -42 53 8 8 -24 44 -34
38 -4 -2 -22 11 -40 30 -19 19 -30 35 -25 35 4 0 0 9 -10 20 -10 11 -22 17
-27 14 -9 -6 -64 36 -63 48 0 10 -38 37 -53 38 -18 0 -83 45 -76 52 5 6 -28
20 -51 23 -24 3 -71 28 -90 48 -28 30 -35 156 -11 180 16 15 20 15 59 0 23 -9
47 -23 53 -31z m-487 -176 c40 -2 77 -9 81 -16 4 -6 27 -12 51 -14 60 -5 109
-17 109 -27 0 -9 40 -24 54 -20 13 3 86 -30 86 -40 0 -7 26 -19 43 -19 17 1
70 -33 94 -60 14 -16 30 -27 34 -24 11 6 80 -46 74 -56 -2 -4 8 -13 23 -21 36
-17 82 -60 82 -75 0 -6 16 -24 35 -39 20 -14 45 -47 57 -71 11 -25 23 -42 26
-39 8 8 52 -62 52 -84 0 -11 8 -26 18 -33 9 -7 23 -26 31 -43 43 -94 2 -133
-84 -80 -22 14 -36 25 -30 25 16 0 -28 27 -56 33 -14 4 -43 20 -64 37 -21 16
-43 30 -50 30 -16 0 -104 39 -90 40 21 1 -28 22 -59 25 -18 1 -54 14 -81 28
-27 15 -52 24 -56 21 -10 -6 -92 17 -100 28 -3 5 -36 11 -73 13 -38 3 -77 10
-89 16 -11 6 -55 11 -98 10 -46 -1 -80 3 -84 10 -5 7 -32 8 -83 3 -42 -4 -106
-8 -142 -9 -36 -2 -89 -8 -119 -14 -30 -6 -81 -12 -113 -15 -33 -2 -65 -9 -71
-14 -19 -15 -198 -72 -191 -61 7 12 -60 -15 -101 -41 -16 -11 -57 -33 -89 -51
-33 -17 -95 -53 -138 -80 -43 -27 -83 -47 -88 -44 -5 3 -12 0 -16 -6 -5 -8 -3
-9 6 -4 8 5 11 4 6 -3 -7 -11 -31 -7 -52 9 -6 5 -14 6 -17 2 -4 -3 -7 5 -7 18
0 32 73 175 109 214 15 17 48 57 74 90 67 89 222 230 331 300 49 33 196 96
206 90 5 -3 38 5 72 19 79 31 159 47 195 40 15 -3 39 -1 53 5 14 6 57 9 95 6
39 -2 103 -6 144 -9z m36 -569 c39 -2 79 -9 91 -15 11 -6 34 -10 50 -10 39 1
98 -12 105 -24 3 -5 22 -11 41 -13 49 -5 118 -27 113 -36 -3 -4 9 -10 27 -14
53 -11 118 -37 113 -46 -5 -7 25 -21 55 -24 18 -2 90 -45 75 -45 -5 0 1 -7 13
-16 13 -9 26 -13 29 -10 7 7 57 -28 95 -65 l27 -27 -2 -186 c-2 -102 -6 -189
-10 -193 -5 -4 -64 -8 -132 -9 -123 -2 -124 -2 -163 -34 -43 -34 -122 -127
-122 -142 0 -6 -39 -9 -92 -7 -56 1 -105 -3 -123 -10 -72 -29 -159 -152 -149
-210 12 -72 10 -142 -4 -162 -21 -30 -30 -167 -22 -334 2 -58 17 -133 19 -101
1 5 14 -8 30 -30 16 -21 28 -41 25 -45 -4 -7 19 -19 100 -50 53 -20 64 -21
115 -11 31 6 91 29 133 51 43 21 75 34 71 28 -12 -19 60 29 150 101 l90 73 33
-32 c18 -18 31 -35 29 -39 -5 -8 34 -46 44 -42 3 1 6 -3 6 -10 0 -17 -148
-139 -162 -134 -6 3 -17 -3 -25 -12 -12 -16 -11 -16 7 -2 19 14 19 14 6 -2 -7
-10 -17 -16 -21 -13 -9 5 -130 -66 -165 -96 -32 -28 -233 -109 -220 -89 6 10
-83 -18 -100 -31 -20 -15 -110 -31 -172 -30 -34 0 -65 -4 -68 -10 -9 -13 -308
-3 -335 11 -11 6 -30 10 -43 8 -35 -4 -118 12 -112 23 6 8 -18 13 -54 11 -20
-1 -94 27 -101 39 -4 5 -20 11 -36 13 -43 6 -86 25 -107 47 -10 10 -27 19 -38
19 -23 0 -67 26 -89 52 -8 10 -25 20 -37 22 -27 6 -84 46 -78 56 2 4 -16 17
-40 30 -42 22 -87 60 -70 60 4 0 2 7 -6 16 -11 13 -4 23 44 71 45 46 58 54 70
45 8 -7 16 -9 19 -6 3 2 27 -17 53 -43 27 -26 52 -49 57 -49 4 -1 12 -2 17 -3
5 0 28 -19 52 -40 23 -22 46 -38 51 -35 9 6 65 -21 90 -44 17 -14 53 -16 188
-8 45 2 111 47 145 98 31 46 36 87 36 248 0 155 -5 188 -29 211 -16 15 -19 25
-13 42 5 12 12 49 16 83 6 53 4 66 -19 108 -14 27 -24 52 -21 56 2 4 -4 15
-15 25 -11 10 -20 15 -20 11 0 -8 -71 43 -82 58 -7 10 -138 10 -169 1 -16 -5
-46 23 -86 82 -12 17 -19 33 -17 36 6 6 -25 31 -40 33 -7 1 -32 11 -55 22 -37
18 -56 21 -135 16 -55 -3 -97 -1 -106 5 -12 9 -15 43 -15 201 0 177 1 192 19
202 10 6 35 25 55 43 58 51 305 185 286 155 -7 -11 94 28 115 45 22 17 133 46
197 51 31 2 62 9 70 16 8 6 58 13 115 15 56 2 104 6 107 9 3 3 40 3 81 0 41
-3 107 -7 145 -9z m-982 -854 c9 -2 15 -8 12 -12 -2 -4 7 -14 21 -22 30 -15
59 -65 44 -74 -17 -10 -77 -119 -82 -150 -4 -17 -2 -57 3 -90 6 -33 12 -75 15
-94 3 -18 8 -30 11 -27 7 6 59 -65 56 -75 -1 -4 7 -15 17 -24 11 -10 20 -15
20 -11 0 8 83 -34 91 -47 4 -5 38 -9 75 -7 109 4 137 7 165 18 15 6 30 8 33 5
12 -12 6 -121 -10 -166 -31 -90 -125 -142 -203 -111 -23 9 -39 20 -36 24 6 9
-29 24 -65 29 -5 0 -26 17 -45 37 -20 20 -42 37 -48 38 -21 3 -77 47 -77 60 0
7 -16 21 -36 32 -20 10 -47 38 -61 62 -14 23 -30 42 -37 42 -14 0 -56 53 -56
72 -1 15 -30 57 -30 43 0 -5 -11 7 -25 27 -14 20 -25 46 -25 57 0 11 -8 28
-19 38 -24 23 -42 58 -44 86 -1 12 -13 43 -25 69 -30 60 -36 131 -13 152 9 8
30 16 46 18 43 6 307 7 328 1z m1973 -14 c12 -12 13 -21 6 -35 -17 -31 -32
-86 -26 -95 9 -15 -67 -202 -86 -214 -6 -4 -26 -32 -46 -63 -20 -31 -52 -76
-71 -100 -20 -24 -32 -46 -29 -50 9 -8 -135 -152 -146 -146 -4 3 -27 -10 -51
-29 -23 -19 -67 -51 -97 -71 -30 -20 -67 -45 -81 -57 -15 -12 -47 -23 -71 -26
-38 -4 -49 -1 -78 23 -19 16 -36 27 -38 24 -3 -3 -13 6 -23 20 -14 19 -20 53
-25 139 -7 109 -6 113 12 103 88 -46 110 -51 176 -42 36 5 78 14 92 20 20 7
25 7 20 -2 -15 -24 80 39 111 74 34 37 75 105 57 94 -5 -3 -3 18 5 47 15 59
19 156 7 166 -14 10 -45 82 -39 90 4 8 -31 46 -44 46 -19 0 24 62 59 83 41 25
381 26 406 1z m-1561 -139 c17 -9 29 -22 28 -28 -2 -6 8 -19 21 -29 38 -30 48
-59 41 -116 -4 -29 -12 -60 -17 -71 -8 -14 -7 -17 3 -10 7 4 4 -8 -7 -27 -21
-36 -81 -82 -95 -74 -4 3 -29 1 -55 -5 -60 -14 -98 -5 -130 28 -13 15 -29 27
-36 27 -16 0 -49 47 -52 76 -2 13 -7 40 -11 60 -12 63 47 150 125 183 44 18
142 11 185 -14z m921 15 c66 -17 79 -26 100 -71 9 -19 20 -32 24 -29 4 3 13
-16 19 -43 11 -44 10 -51 -14 -97 -35 -66 -50 -82 -110 -116 -68 -39 -114 -38
-159 2 -19 16 -38 29 -43 28 -12 -3 -44 45 -48 72 -2 13 -6 45 -10 70 -11 73
36 149 115 183 44 19 56 19 126 1z"/>
<path d="M1522 2055 c-78 -29 -173 -109 -232 -197 -50 -74 -52 -84 -54 -203
-1 -86 2 -107 22 -148 13 -26 25 -56 27 -67 4 -23 24 -59 25 -46 0 6 16 -5 35
-24 19 -18 32 -36 30 -41 -3 -4 32 -25 78 -47 74 -36 91 -41 181 -45 95 -5
100 -5 172 28 104 48 175 117 224 220 39 81 39 81 33 180 -4 91 -9 108 -45
182 -22 46 -43 81 -47 78 -5 -2 -23 11 -41 30 -19 19 -30 35 -24 35 13 1 -23
21 -45 25 -10 2 -38 13 -62 25 -36 18 -63 22 -147 24 -56 0 -115 -3 -130 -9z
m256 -76 c18 -6 30 -14 27 -19 -5 -8 17 -19 40 -20 15 -1 75 -62 70 -71 -3 -4
5 -16 18 -26 46 -36 62 -93 61 -223 0 -53 -5 -72 -27 -105 -70 -105 -76 -112
-182 -182 -33 -22 -51 -27 -105 -27 -130 -1 -187 15 -223 61 -10 13 -22 21
-26 18 -8 -4 -71 55 -69 65 3 14 -15 50 -22 45 -29 -18 -47 188 -23 267 22 76
136 192 213 218 60 21 184 20 248 -1z"/>
<path d="M1575 1912 c-66 -22 -172 -130 -188 -192 -10 -38 18 -224 32 -215 4
2 23 -16 42 -41 18 -25 44 -47 59 -50 14 -4 47 -12 74 -20 58 -16 89 -18 114
-5 9 5 39 19 65 31 52 24 111 92 122 140 4 17 11 32 16 35 13 9 11 54 -5 111
-8 27 -16 60 -20 74 -3 15 -25 41 -50 59 -25 19 -43 38 -41 42 6 8 -20 15
-120 29 -77 11 -72 11 -100 2z m115 -127 c42 -5 78 -39 86 -82 4 -19 11 -30
17 -26 7 4 8 -8 4 -37 -10 -73 -64 -127 -137 -137 -29 -4 -41 -3 -37 4 4 6 -7
13 -27 17 -34 7 -91 59 -81 75 2 5 0 23 -5 42 -14 50 18 111 73 138 23 12 49
18 58 16 9 -3 31 -8 49 -10z"/>
<path d="M949 1914 c-17 -5 -29 -33 -29 -70 0 -17 -8 -22 -41 -27 -22 -3 -43
-8 -47 -11 -3 -4 -6 -28 -6 -54 l-1 -47 50 -3 c43 -2 54 1 75 23 l24 25 -29
30 c-16 17 -24 30 -18 30 5 0 18 -9 28 -20 24 -26 37 -25 64 4 18 19 22 33 19
72 -3 48 -3 49 -38 51 -19 0 -42 -1 -51 -3z"/>
<path d="M2272 1897 c-6 -7 -12 -30 -14 -52 -3 -37 -5 -40 -30 -37 -48 6 -68
-13 -68 -63 0 -52 7 -58 56 -49 29 5 39 14 50 40 8 18 12 39 9 46 -4 9 6 14
31 15 19 1 41 7 48 13 16 13 28 64 20 85 -8 19 -87 21 -102 2z"/>
<path d="M993 1748 c-58 -58 -73 -80 -73 -103 0 -45 10 -52 71 -57 l56 -4 -5
50 c-2 28 -9 56 -14 63 -9 11 12 11 97 -1 19 -2 20 2 15 58 l-5 61 -35 3 c-32
3 -42 -4 -107 -70z"/>
<path d="M2375 1790 c-11 -12 -16 -29 -13 -45 6 -29 -12 -48 -36 -39 -9 3 -27
-1 -41 -10 -20 -13 -25 -25 -25 -56 0 -52 23 -66 70 -42 32 16 56 61 46 87 -2
6 12 11 31 12 19 1 40 7 47 13 16 12 28 64 20 83 -8 22 -78 20 -99 -3z"/>
<path d="M1116 1250 c-60 -18 -102 -81 -91 -137 8 -46 36 -106 55 -118 23 -14
116 -18 140 -5 18 10 21 10 14 -2 -6 -9 -1 -8 16 3 14 9 25 24 25 32 0 9 4 19
9 24 5 5 6 2 1 -6 -5 -8 -4 -12 2 -8 13 8 8 154 -7 172 -7 8 -15 14 -18 13 -7
-1 -51 16 -84 33 -20 10 -23 10 -62 -1z"/>
<path d="M2063 1225 c-17 -14 -41 -40 -52 -59 -22 -34 -29 -92 -11 -81 6 3 10
-1 10 -10 0 -8 12 -33 26 -55 26 -38 29 -40 81 -40 99 0 153 51 153 145 0 62
-3 67 -64 99 -62 33 -102 33 -143 1z"/>
</g>
</svg>
